<svg width="160" height="83" viewBox="0 0 160 83" fill="none" xmlns="http://www.w3.org/2000/svg">
<g id="logo-01 1" clip-path="url(#clip0_0_548)">
<path id="Vector" d="M70.0341 48.8511C70.5115 48.8517 70.9783 48.7107 71.3754 48.446C71.7726 48.1813 72.0822 47.8048 72.2653 47.3641C72.4483 46.9235 72.4965 46.4384 72.4037 45.9704C72.3109 45.5023 72.0813 45.0723 71.744 44.7347C71.4067 44.3972 70.9767 44.1672 70.5086 44.0739C70.0405 43.9806 69.5552 44.0282 69.1142 44.2107C68.6731 44.3931 68.2961 44.7023 68.0309 45.099C67.7656 45.4957 67.624 45.9621 67.624 46.4392C67.624 47.0784 67.8779 47.6915 68.3298 48.1437C68.7817 48.596 69.3947 48.8504 70.0341 48.8511Z" fill="white"/>
<path id="Vector_2" d="M66.2476 46.4392C66.2476 45.9622 66.1061 45.4959 65.8409 45.0993C65.5758 44.7026 65.199 44.3935 64.7581 44.2109C64.3172 44.0284 63.8321 43.9806 63.364 44.0737C62.896 44.1668 62.466 44.3965 62.1286 44.7338C61.7911 45.0711 61.5613 45.5008 61.4682 45.9687C61.3751 46.4366 61.4229 46.9215 61.6055 47.3622C61.7882 47.8029 62.0974 48.1796 62.4942 48.4446C62.891 48.7097 63.3575 48.8511 63.8347 48.8511C64.4747 48.8511 65.0884 48.597 65.5409 48.1447C65.9934 47.6924 66.2476 47.0789 66.2476 46.4392Z" fill="white"/>
<path id="Vector_3" d="M62.4926 0.886719H58.4894C57.4118 0.893153 56.38 1.32355 55.6175 2.08475C54.855 2.84594 54.423 3.87669 54.4152 4.95388V20.1354H62.4817L62.4926 0.886719Z" fill="white"/>
<path id="Vector_4" d="M51.9861 25.5382V0.886719H48.0867C47.052 0.889602 46.0605 1.30176 45.3288 2.03314C44.5971 2.76453 44.1848 3.75566 44.1819 4.78999C44.1819 7.52145 44.1327 26.486 44.1327 29.2366C44.1327 30.4319 43.6577 31.5783 42.8121 32.4235C41.9666 33.2687 40.8198 33.7435 39.624 33.7435C38.4282 33.7435 37.2814 33.2687 36.4358 32.4235C35.5903 31.5783 35.1153 30.4319 35.1153 29.2366V26.9859L35.0661 27.0241H27.4668V30.8482L27.546 34.1478C27.7312 36.1865 28.6707 38.0828 30.1809 39.4656C31.691 40.8483 33.663 41.6179 35.7109 41.6238H43.7966C45.9694 41.6195 48.052 40.7548 49.5885 39.219C51.1249 37.6832 51.99 35.6014 51.9943 33.4294L51.9861 25.5382Z" fill="white"/>
<path id="Vector_5" d="M24.6051 33.429V0.886308H12.1938V0.867188C12.0708 0.867188 11.9506 0.867187 11.8303 0.883576H11.7101V0.886308C8.50973 1.08824 5.51325 2.5259 3.35377 4.89554C1.19428 7.26518 0.0409428 10.3812 0.137438 13.5852C0.233933 16.7891 1.5727 19.8301 3.87088 22.0656C6.16906 24.3011 9.24664 25.556 12.4533 25.5651C13.8879 25.5651 15.328 25.5651 16.7653 25.546C16.7653 27.2996 16.7653 28.6353 16.7653 29.2308C16.7653 30.4261 16.2903 31.5724 15.4448 32.4176C14.5992 33.2628 13.4524 33.7377 12.2566 33.7377C11.0608 33.7377 9.914 33.2628 9.06844 32.4176C8.22289 31.5724 7.74787 30.4261 7.74787 29.2308V26.98L7.69868 27.0183H3.92227C2.90766 27.0183 1.93461 27.4212 1.21717 28.1383C0.499732 28.8555 0.0966797 29.8281 0.0966797 30.8423L0.178657 34.1419C0.363772 36.1807 1.30335 38.077 2.81349 39.4597C4.32363 40.8424 6.29564 41.6121 8.34357 41.618H16.4238C18.5966 41.6136 20.6792 40.7489 22.2156 39.2131C23.7521 37.6773 24.6171 35.5955 24.6215 33.4236M12.1938 17.1549C9.76177 17.1549 7.79432 15.273 7.79432 12.9567C7.79432 10.7251 9.61694 8.90317 11.9205 8.76933H14.3252C15.6914 9.18724 16.7189 10.8316 16.6861 12.7026V17.1549H12.1938Z" fill="white"/>
<path id="Vector_6" d="M83.4812 25.3932V17.0786H75.1359C74.0369 17.0815 72.9838 17.5194 72.2069 18.2964C71.4301 19.0735 70.9928 20.1264 70.9906 21.225V34.0438H66.7442C65.6184 34.0409 64.5394 33.5929 63.7428 32.7977C62.9462 32.0024 62.4966 30.9244 62.4923 29.7991V22.5252H54.4258V34.2514C54.4301 36.206 55.2088 38.0793 56.5915 39.4615C57.9742 40.8436 59.8483 41.622 61.8037 41.6263H71.2775C73.2332 41.6227 75.1077 40.8445 76.4905 39.4622C77.8734 38.08 78.6518 36.2062 78.6554 34.2514V25.3686C80.2677 25.3686 81.8826 25.3686 83.4948 25.3932" fill="white"/>
<path id="Vector_7" d="M35.0743 4.95114C35.0743 2.7168 33.35 0.886719 31.2323 0.886719H27.4668V24.7734H35.0743V4.95114Z" fill="white"/>
<path id="Vector_8" d="M152.826 0.886719H142.904C138.95 0.886719 135.718 4.20272 135.718 8.26168V34.2625C135.718 38.3133 138.95 41.6375 142.904 41.6375H152.826C156.78 41.6375 160.013 38.3215 160.013 34.2625V8.26168C160.013 4.21092 156.78 0.886719 152.826 0.886719ZM152.504 29.5289C152.516 30.7109 152.059 31.8494 151.234 32.6959C150.408 33.5424 149.281 34.028 148.099 34.0467H147.629C146.447 34.0273 145.321 33.5414 144.496 32.695C143.671 31.8486 143.215 30.7104 143.227 29.5289V13.0773C143.215 11.8958 143.671 10.7576 144.496 9.91119C145.321 9.06478 146.447 8.57883 147.629 8.55941H148.099C149.281 8.57812 150.408 9.06375 151.234 9.91024C152.059 10.7567 152.516 11.8953 152.504 13.0773V29.5289Z" fill="white"/>
<path id="Vector_9" d="M91.3731 27.5923H83.394L83.3038 37.6987C83.3067 38.7359 83.7202 39.7299 84.4539 40.4633C85.1877 41.1967 86.182 41.61 87.2196 41.6129C88.5859 41.6129 89.9795 41.7031 91.3731 41.7659V27.5923Z" fill="white"/>
<path id="Vector_10" d="M123.667 27.5404V41.6157C125.061 41.5528 126.454 41.46 127.826 41.46C128.863 41.4556 129.856 41.0413 130.589 40.3075C131.322 39.5736 131.734 38.5798 131.736 37.5431L131.665 25.0493C130.903 25.8358 129.99 26.4614 128.981 26.8893C127.973 27.3171 126.889 27.5385 125.793 27.5404H123.667Z" fill="white"/>
<path id="Vector_11" d="M98.6855 32.8882C99.1629 32.8888 99.6298 32.7477 100.027 32.4829C100.424 32.2181 100.734 31.8414 100.917 31.4006C101.1 30.9598 101.148 30.4746 101.055 30.0065C100.962 29.5384 100.732 29.1084 100.394 28.7709C100.057 28.4334 99.6265 28.2036 99.1582 28.1107C98.6899 28.0177 98.2046 28.0657 97.7636 28.2486C97.3226 28.4315 96.9458 28.741 96.6808 29.1381C96.4159 29.5351 96.2748 30.0018 96.2753 30.4791C96.2753 31.118 96.5293 31.7308 96.9812 32.1826C97.4332 32.6344 98.0463 32.8882 98.6855 32.8882Z" fill="white"/>
<path id="Vector_12" d="M112.982 41.6156C114.009 41.6113 114.993 41.2016 115.719 40.4756C116.445 39.7497 116.855 38.7663 116.86 37.7397V25.3989H125.363C127.536 25.3939 129.618 24.5289 131.154 22.9932C132.691 21.4576 133.556 19.3762 133.561 17.2045V9.12756C133.557 7.19389 132.869 5.32389 131.619 3.84829C130.369 2.37268 128.637 1.38654 126.73 1.06426C126.514 1.02133 126.296 0.989422 126.076 0.968663H125.951C125.692 0.916245 125.428 0.888804 125.164 0.886719H109.104V41.6156H112.982ZM116.86 8.63862H122.084C123.172 8.86958 124.136 9.49443 124.79 10.393C125.445 11.2915 125.744 12.4003 125.63 13.506C125.516 14.6117 124.997 15.6363 124.173 16.3826C123.349 17.1289 122.278 17.5442 121.166 17.5487C119.726 17.5487 118.294 17.5651 116.86 17.5705V8.63862Z" fill="white"/>
<path id="Vector_13" d="M95.4911 25.4944C98.73 25.4694 101.83 24.1746 104.123 21.8884C106.416 19.6023 107.721 16.5076 107.755 13.2701C107.789 10.0327 106.55 6.91125 104.305 4.57745C102.06 2.24365 98.9883 0.883992 95.7507 0.791016H83.4815V15.0384H91.3322V11.4574C91.3322 8.94445 93.2013 8.72593 93.5592 8.70135C93.5774 8.69888 93.5957 8.69888 93.6139 8.70135H96.0568C98.3439 8.85158 100.156 10.668 100.156 12.8887C100.156 15.205 98.1882 17.087 95.7562 17.087H83.487V25.3934C87.4957 25.4316 91.5071 25.4944 95.5103 25.4944" fill="white"/>
<path id="Vector_14" d="M3.87108 51.9268V61.6399H2.06759V53.4455H0.0126953V51.935L3.87108 51.9268Z" fill="white"/>
<path id="Vector_15" d="M13.5246 52.342C14.1119 52.5879 14.6124 53.0036 14.9619 53.5357C15.2893 54.0945 15.4618 54.7304 15.4618 55.378C15.4618 56.0256 15.2893 56.6615 14.9619 57.2204C14.6143 57.7554 14.1134 58.1733 13.5246 58.4195C12.829 58.7122 12.0794 58.8546 11.3249 58.8374H9.13884V61.6399H7.32715V51.9268H11.3249C12.0792 51.9088 12.8288 52.0503 13.5246 52.342ZM13.0327 56.8107C13.2254 56.6256 13.3787 56.4036 13.4834 56.1579C13.5881 55.9122 13.6421 55.6478 13.6421 55.3808C13.6421 55.1137 13.5881 54.8494 13.4834 54.6036C13.3787 54.3579 13.2254 54.1359 13.0327 53.9508C12.6256 53.6176 12.0272 53.451 11.2429 53.451H9.13337V57.3105H11.2429C12.0354 57.3105 12.6256 57.1549 13.0327 56.8107Z" fill="white"/>
<path id="Vector_16" d="M24.4583 61.6399L22.4717 58.7937C22.3473 58.8055 22.2223 58.81 22.0974 58.8074H19.9113V61.6399H18.0996V51.9268H22.0974C22.8517 51.9088 23.6013 52.0503 24.2971 52.342C24.8844 52.5879 25.3849 53.0036 25.7344 53.5357C26.0814 54.0881 26.2591 54.73 26.2454 55.3821C26.26 56.0514 26.0693 56.7091 25.6989 57.2668C25.3248 57.8115 24.7883 58.2245 24.1659 58.4468L26.4011 61.6399H24.4583ZM23.8052 53.9508C23.399 53.6176 22.8024 53.451 22.0154 53.451H19.9058V57.3242H22.0154C22.8024 57.3242 23.399 57.1549 23.8052 56.8161C23.9987 56.631 24.1527 56.4086 24.2579 56.1624C24.3631 55.9162 24.4174 55.6512 24.4174 55.3835C24.4174 55.1158 24.3631 54.8508 24.2579 54.6046C24.1527 54.3583 23.9987 54.136 23.8052 53.9508Z" fill="white"/>
<path id="Vector_17" d="M30.9399 61.1319C30.1623 60.7193 29.5136 60.1002 29.0653 59.3428C28.6194 58.563 28.3848 57.6803 28.3848 56.782C28.3848 55.8838 28.6194 55.0011 29.0653 54.2213C29.5144 53.4645 30.1628 52.8456 30.9399 52.4322C31.7694 52.0085 32.6876 51.7876 33.6192 51.7876C34.5507 51.7876 35.4689 52.0085 36.2984 52.4322C37.0746 52.8443 37.7229 53.4612 38.173 54.2158C38.6181 54.9979 38.8521 55.8822 38.8521 56.782C38.8521 57.6818 38.6181 58.5661 38.173 59.3482C37.7237 60.1035 37.0752 60.7205 36.2984 61.1319C35.4694 61.5573 34.551 61.7792 33.6192 61.7792C32.6873 61.7792 31.7689 61.5573 30.9399 61.1319ZM35.3694 59.7662C35.882 59.4804 36.3049 59.0576 36.5908 58.5452C36.8814 58.0058 37.0335 57.4028 37.0335 56.7902C37.0335 56.1776 36.8814 55.5746 36.5908 55.0353C36.3035 54.5239 35.8809 54.1015 35.3694 53.8143C34.8311 53.5273 34.2305 53.3773 33.6205 53.3773C33.0105 53.3773 32.4099 53.5273 31.8717 53.8143C31.359 54.1 30.9361 54.5228 30.6502 55.0353C30.358 55.5741 30.2049 56.1773 30.2049 56.7902C30.2049 57.4031 30.358 58.0064 30.6502 58.5452C30.9346 59.0588 31.3579 59.4819 31.8717 59.7662C32.4099 60.0531 33.0105 60.2032 33.6205 60.2032C34.2305 60.2032 34.8311 60.0531 35.3694 59.7662Z" fill="white"/>
<path id="Vector_18" d="M48.1056 61.132C47.3322 60.7209 46.6881 60.1035 46.2447 59.3484C45.7996 58.5663 45.5656 57.6819 45.5656 56.7821C45.5656 55.8824 45.7996 54.998 46.2447 54.2159C46.6934 53.4622 47.3398 52.8454 48.1138 52.4323C48.9314 51.9963 49.8461 51.7746 50.7726 51.7877C51.5218 51.7775 52.2654 51.9187 52.9587 52.2028C53.601 52.4696 54.1719 52.8831 54.6255 53.4101L53.4587 54.5027C53.1336 54.1372 52.7334 53.8461 52.2853 53.6495C51.8373 53.453 51.352 53.3555 50.8628 53.3637C50.2385 53.3529 49.622 53.5035 49.073 53.8008C48.5555 54.0823 48.1275 54.5034 47.8378 55.0163C47.5456 55.5575 47.3926 56.163 47.3926 56.7781C47.3926 57.3931 47.5456 57.9986 47.8378 58.5399C48.1269 59.0525 48.5551 59.4729 49.073 59.7526C49.622 60.0499 50.2385 60.2004 50.8628 60.1897C51.353 60.1977 51.8392 60.0989 52.2874 59.9004C52.7357 59.7018 53.1354 59.4081 53.4587 59.0397L54.6255 60.1487C54.1704 60.6765 53.5976 61.0901 52.9532 61.356C52.2599 61.6403 51.5165 61.7825 50.7672 61.7739C49.8398 61.79 48.9236 61.569 48.1056 61.132Z" fill="white"/>
<path id="Vector_19" d="M64.4764 60.1266V61.6399H57.1887V51.9268H64.2933V53.4373H58.9949V55.9639H63.6812V57.4498H58.9949V60.1266H64.4764Z" fill="white"/>
<path id="Vector_20" d="M75.9564 51.9268V61.6399H74.4726L69.114 55.0625V61.6399H67.3242V51.9268H68.808L74.1666 58.5041V51.9268H75.9564Z" fill="white"/>
<path id="Vector_21" d="M81.372 53.4509H78.1639V51.9268H86.4108V53.4509H83.1755V61.6453H81.372V53.4509Z" fill="white"/>
<path id="Vector_22" d="M94.947 61.6399L92.9631 58.7937C92.8378 58.8054 92.7119 58.8099 92.586 58.8074H90.4V61.6399H88.5938V51.9268H92.5915C93.3467 51.909 94.0971 52.0505 94.7939 52.342C95.38 52.5888 95.8794 53.0043 96.2285 53.5356C96.5717 54.0892 96.7455 54.731 96.7286 55.3821C96.7462 56.0498 96.5604 56.7071 96.1957 57.2668C95.82 57.8111 95.2828 58.2238 94.66 58.4468L96.8953 61.6399H94.947ZM94.2857 53.9508C93.8794 53.6176 93.2828 53.4509 92.4959 53.4509H90.3863V57.3242H92.4959C93.2828 57.3242 93.8794 57.1548 94.2857 56.8161C94.4792 56.631 94.6332 56.4086 94.7384 56.1624C94.8436 55.9162 94.8979 55.6512 94.8979 55.3835C94.8979 55.1157 94.8436 54.8507 94.7384 54.6045C94.6332 54.3583 94.4792 54.1359 94.2857 53.9508Z" fill="white"/>
<path id="Vector_23" d="M106.856 60.1266V61.6399H99.5684V51.9268H106.673V53.4373H101.375V55.9639H106.066V57.4498H101.375V60.1266H106.856Z" fill="white"/>
<path id="Vector_24" d="M114.368 51.927H118.606C119.561 51.908 120.507 52.1148 121.366 52.5306C122.144 52.9053 122.795 53.4986 123.241 54.2378C123.682 55.0153 123.915 55.8936 123.917 56.7876C123.919 57.6815 123.69 58.5608 123.252 59.3402C122.805 60.0781 122.154 60.671 121.377 61.0474C120.517 61.4619 119.572 61.6687 118.617 61.651H114.368V51.927ZM118.533 60.1214C119.183 60.1352 119.827 59.9948 120.413 59.7117C120.937 59.4563 121.373 59.0502 121.664 58.5453C121.951 58.0049 122.101 57.4023 122.101 56.7904C122.101 56.1784 121.951 55.5759 121.664 55.0354C121.372 54.5312 120.936 54.1252 120.413 53.8691C119.827 53.5859 119.183 53.4455 118.533 53.4593H116.172V60.1214H118.533Z" fill="white"/>
<path id="Vector_25" d="M135.592 61.6399L135.578 55.2018L132.384 60.5282H131.58L128.388 55.2837V61.6399H126.664V51.9268H128.151L132.012 58.3648L135.799 51.9268H137.286L137.299 61.6399H135.592Z" fill="white"/>
<path id="Vector_26" d="M142.595 61.1319C141.823 60.7171 141.181 60.0969 140.74 59.34C140.296 58.5573 140.063 57.6732 140.063 56.7738C140.063 55.8744 140.296 54.9903 140.74 54.2076C141.188 53.4545 141.833 52.8379 142.606 52.424C143.424 51.9883 144.338 51.7666 145.265 51.7793C146.014 51.7692 146.757 51.9104 147.451 52.1945C148.093 52.4612 148.664 52.8747 149.118 53.4018L147.951 54.4944C147.626 54.1288 147.225 53.8378 146.777 53.6412C146.329 53.4446 145.844 53.3471 145.355 53.3554C144.731 53.3446 144.114 53.4951 143.565 53.7924C143.048 54.074 142.62 54.4951 142.33 55.0079C142.038 55.5492 141.885 56.1546 141.885 56.7697C141.885 57.3848 142.038 57.9902 142.33 58.5315C142.619 59.0441 143.047 59.4646 143.565 59.7443C144.114 60.0416 144.731 60.1921 145.355 60.1813C145.845 60.1893 146.331 60.0906 146.779 59.892C147.228 59.6935 147.627 59.3998 147.951 59.0314L149.118 60.1403C148.662 60.6682 148.09 61.0818 147.445 61.3477C146.752 61.6324 146.009 61.7745 145.259 61.7656C144.332 61.7838 143.415 61.5657 142.595 61.1319Z" fill="white"/>
<path id="Vector_27" d="M153.31 61.1319C152.536 60.7182 151.893 60.0979 151.452 59.3401C151.008 58.5574 150.775 57.6733 150.775 56.7738C150.775 55.8744 151.008 54.9903 151.452 54.2076C151.899 53.4534 152.544 52.8364 153.318 52.424C154.136 51.988 155.05 51.7663 155.977 51.7794C156.726 51.7692 157.47 51.9104 158.163 52.1945C158.805 52.4613 159.376 52.8748 159.83 53.4018L158.663 54.4944C158.338 54.1289 157.938 53.8378 157.49 53.6412C157.041 53.4447 156.556 53.3472 156.067 53.3554C155.443 53.3446 154.826 53.4952 154.277 53.7924C153.76 54.074 153.332 54.4951 153.042 55.008C152.75 55.5492 152.597 56.1547 152.597 56.7697C152.597 57.3848 152.75 57.9903 153.042 58.5315C153.331 59.0442 153.759 59.4646 154.277 59.7443C154.826 60.0416 155.443 60.1921 156.067 60.1814C156.557 60.1893 157.043 60.0906 157.492 59.8921C157.94 59.6935 158.34 59.3998 158.663 59.0314L159.83 60.1404C159.375 60.6682 158.802 61.0818 158.157 61.3477C157.464 61.6322 156.721 61.7743 155.971 61.7656C155.045 61.7834 154.129 61.5653 153.31 61.1319Z" fill="white"/>
<path id="Vector_28" d="M21.209 76.0155C21.2172 76.4881 21.147 76.9588 21.0013 77.4085C20.8688 77.8009 20.6525 78.1597 20.3674 78.4601C19.7589 79.0993 18.8672 79.4189 17.6922 79.4189C16.7438 79.4401 15.7986 79.3007 14.8968 79.0064C14.5952 79.1507 14.2766 79.2562 13.9486 79.3205C13.5516 79.3974 13.1478 79.434 12.7435 79.4298C12.5381 79.4286 12.3328 79.4168 12.1287 79.3943C11.8937 79.3697 11.6204 79.3287 11.3089 79.2741V79.9952C11.3146 80.4452 11.2213 80.8909 11.0356 81.3009C10.8586 81.6833 10.5891 82.0156 10.2514 82.2678C9.886 82.543 9.47144 82.7461 9.02992 82.866C8.48836 83.0056 7.93046 83.0718 7.37125 83.0627C5.03946 83.0627 3.17675 82.8223 1.78314 82.3415V73.874H3.83804V81.2735C4.32159 81.4007 4.81388 81.492 5.31089 81.5467C5.88327 81.6124 6.45901 81.6443 7.03514 81.6423C7.92596 81.6423 8.54717 81.4602 8.89876 81.096C9.1374 80.8538 9.25581 80.4186 9.25399 79.7904V70.1729H11.3116V77.3675C11.7376 77.5696 12.2069 77.6635 12.6779 77.6407C13.6944 77.6407 14.2027 77.1299 14.2027 76.1138V70.1729H16.2576V77.3675C16.6811 77.5785 17.1511 77.6791 17.6239 77.6598C18.6458 77.6598 19.1596 77.149 19.1596 76.1329V70.1729H21.2145L21.209 76.0155Z" fill="white"/>
<path id="Vector_29" d="M26.3601 78.1163C26.3627 78.2776 26.332 78.4378 26.2699 78.5868C26.2079 78.7357 26.1158 78.8703 25.9994 78.9821C25.8856 79.0971 25.7497 79.1879 25.5999 79.2489C25.4501 79.31 25.2894 79.34 25.1277 79.3372C24.7988 79.336 24.4822 79.2123 24.2396 78.9903C24.1226 78.8775 24.0306 78.7414 23.9694 78.5909C23.9082 78.4404 23.8792 78.2787 23.8844 78.1163C23.8828 77.7887 24.0104 77.4737 24.2396 77.2395C24.354 77.1239 24.4894 77.0312 24.6386 76.9663C24.7939 76.9038 24.9602 76.8731 25.1277 76.8762C25.2897 76.8748 25.4502 76.9068 25.5993 76.9703C25.7483 77.0337 25.8827 77.1272 25.9939 77.2449C26.1104 77.3581 26.2029 77.4936 26.2658 77.6433C26.3287 77.793 26.3608 77.9539 26.3601 78.1163Z" fill="white"/>
<path id="Vector_30" d="M41.5281 74.7371C41.5281 76.4525 41.0991 77.7089 40.2411 78.5065C39.5653 79.1181 38.6762 79.4399 37.7654 79.4024C37.248 79.4243 36.7326 79.327 36.2588 79.1182C35.785 78.9093 35.3655 78.5945 35.0328 78.1979C34.5956 78.8971 33.8168 79.2468 32.7047 79.2468H31.9177C31.0305 79.2468 30.586 79.702 30.5842 80.6125V83.0708H28.5293V80.3393C28.5293 79.3478 28.8026 78.6185 29.3846 78.1542C29.9666 77.6898 30.841 77.4604 32.0461 77.4604H32.3194C32.7648 77.4906 33.212 77.435 33.6365 77.2965C33.9343 77.1435 34.0819 76.8157 34.0819 76.3104C34.0819 76.2012 34.0819 76.0646 34.06 75.898C34.0381 75.7313 34.0299 75.5948 34.019 75.4801L33.9917 74.7207C33.9917 73.3167 34.2977 72.1914 34.9153 71.3528C35.5839 70.4587 36.533 70.0117 37.7626 70.0117C38.31 69.9854 38.8554 70.094 39.351 70.3278C39.8465 70.5617 40.277 70.9137 40.6045 71.3528C41.2221 72.2032 41.5299 73.3313 41.5281 74.7371ZM39.5005 74.7016C39.5005 72.4308 38.9221 71.2954 37.7654 71.2954C36.6086 71.2954 36.0302 72.4308 36.0302 74.7016C36.0302 76.9086 36.6086 78.013 37.7654 78.0149C38.9221 78.0167 39.5005 76.9123 39.5005 74.7016Z" fill="white"/>
<path id="Vector_31" d="M46.3514 78.1163C46.354 78.2776 46.3233 78.4378 46.2612 78.5868C46.1992 78.7357 46.1071 78.8703 45.9907 78.9821C45.8769 79.0971 45.741 79.1879 45.5912 79.2489C45.4414 79.31 45.2807 79.34 45.119 79.3372C44.791 79.3356 44.4754 79.2119 44.2336 78.9903C44.1163 78.8776 44.0238 78.7417 43.9622 78.5911C43.9005 78.4406 43.871 78.2789 43.8757 78.1163C43.8751 77.7883 44.0037 77.4734 44.2336 77.2395C44.347 77.124 44.4815 77.0312 44.6298 76.9663C44.7852 76.9038 44.9515 76.8731 45.119 76.8762C45.281 76.8748 45.4415 76.9068 45.5905 76.9703C45.7396 77.0337 45.8739 77.1272 45.9852 77.2449C46.1017 77.3581 46.1942 77.4936 46.2571 77.6433C46.32 77.793 46.3521 77.9539 46.3514 78.1163Z" fill="white"/>
<path id="Vector_32" d="M53.8577 74.5817C53.8577 76.5538 53.3741 77.8986 52.4067 78.6161C52.1007 78.8397 51.7534 79.0004 51.3847 79.0886C50.9325 79.2003 50.4678 79.2536 50.0021 79.2471H47.0126V77.458H49.5075C50.34 77.458 50.9211 77.2021 51.2508 76.6904C51.5241 76.2588 51.6717 75.5459 51.6717 74.5544C51.6717 73.6066 51.4886 72.8664 51.1252 72.3365C50.9618 72.0837 50.7358 71.8777 50.469 71.7384C50.2023 71.599 49.9039 71.5313 49.6031 71.5416C49.3064 71.5394 49.01 71.5641 48.7178 71.6153C48.4441 71.6663 48.1773 71.7488 47.9226 71.8612L47.7504 70.5555C48.4736 70.1688 49.2863 69.9803 50.1059 70.0092C50.6117 69.9898 51.1154 70.0838 51.5802 70.2842C52.045 70.4846 52.459 70.7863 52.792 71.1674C53.4934 71.9704 53.8486 73.1085 53.8577 74.5817Z" fill="white"/>
<path id="Vector_33" d="M58.6725 78.1163C58.6751 78.2776 58.6444 78.4378 58.5823 78.5868C58.5203 78.7357 58.4282 78.8703 58.3118 78.9821C58.198 79.0971 58.0621 79.1879 57.9123 79.2489C57.7625 79.31 57.6018 79.34 57.4401 79.3372C57.1112 79.336 56.7946 79.2123 56.552 78.9903C56.435 78.8775 56.3429 78.7414 56.2818 78.5909C56.2206 78.4404 56.1916 78.2787 56.1967 78.1163C56.1952 77.7887 56.3228 77.4737 56.552 77.2395C56.6664 77.1239 56.8018 77.0312 56.9509 76.9663C57.1063 76.9038 57.2726 76.8731 57.4401 76.8762C57.6021 76.8748 57.7626 76.9068 57.9116 76.9703C58.0607 77.0337 58.195 77.1272 58.3063 77.2449C58.4228 77.3581 58.5153 77.4936 58.5782 77.6433C58.6411 77.793 58.6732 77.9539 58.6725 78.1163Z" fill="white"/>
<path id="Vector_34" d="M73.8404 74.7371C73.8404 76.4525 73.4114 77.7089 72.5534 78.5065C71.8776 79.1181 70.9885 79.4399 70.0777 79.4024C69.5603 79.4243 69.0449 79.327 68.5711 79.1182C68.0973 78.9093 67.6779 78.5945 67.3451 78.1979C66.9079 78.8971 66.1291 79.2468 65.017 79.2468H64.2273C63.3401 79.2468 62.8956 79.702 62.8938 80.6125V83.0708H60.8389V80.3393C60.8389 79.3478 61.1121 78.6185 61.6942 78.1542C62.2762 77.6898 63.1506 77.4604 64.3557 77.4604H64.6289C65.0744 77.4906 65.5216 77.435 65.946 77.2965C66.2439 77.1435 66.3914 76.8157 66.3914 76.3104C66.3914 76.2012 66.3914 76.0646 66.3696 75.898C66.3477 75.7313 66.3395 75.5948 66.3286 75.4801L66.3013 74.7207C66.3013 73.3167 66.6073 72.1914 67.2249 71.3528C67.8934 70.4587 68.8426 70.0117 70.0722 70.0117C70.6196 69.9854 71.165 70.094 71.6605 70.3278C72.1561 70.5617 72.5866 70.9137 72.9141 71.3528C73.5335 72.2032 73.8422 73.3313 73.8404 74.7371ZM71.8129 74.7016C71.8129 72.4308 71.2345 71.2954 70.0777 71.2954C68.9209 71.2954 68.3425 72.4308 68.3425 74.7016C68.3425 76.9086 68.9209 78.013 70.0777 78.0149C71.2345 78.0167 71.8129 76.9123 71.8129 74.7016Z" fill="white"/>
<path id="Vector_35" d="M86.8643 79.2468H85.8697C85.64 79.2469 85.4106 79.2286 85.1838 79.1922C84.9518 79.1532 84.7234 79.0956 84.5007 79.0201V79.3752C84.5007 80.5552 84.16 81.4656 83.4787 82.1066C82.7974 82.7476 81.881 83.0636 80.7297 83.0545C80.1323 83.0611 79.5356 83.0099 78.9481 82.9015C78.4849 82.8156 78.0396 82.6522 77.631 82.418L78.2076 81.0659C78.8769 81.4336 79.63 81.6218 80.3936 81.6122C81.7818 81.6122 82.4758 80.9312 82.4758 79.5691V70.1729H84.5307V77.2747C84.7228 77.345 84.9229 77.3908 85.1264 77.4112C85.4258 77.4446 85.7269 77.4601 86.0282 77.4577H86.8753L86.8643 79.2468Z" fill="white"/>
<path id="Vector_36" d="M94.5378 79.247H92.8983C91.8053 79.247 90.9682 79.0557 90.3871 78.6733C90.0641 78.8696 89.7117 79.0126 89.3432 79.0967C88.8645 79.2044 88.3747 79.2548 87.884 79.247H86.1953V77.4578H87.813C88.0303 77.4716 88.2478 77.4351 88.4487 77.3512C88.6496 77.2674 88.8286 77.1384 88.9716 76.9744C89.2315 76.6553 89.3647 76.2518 89.346 75.8408V70.173H91.4008V75.6769C91.4008 76.866 91.9036 77.4597 92.9092 77.4578H94.5488L94.5378 79.247ZM89.9635 67.5972C89.9618 67.7362 89.9308 67.8733 89.8724 67.9995C89.814 68.1256 89.7296 68.238 89.6247 68.3293C89.5217 68.422 89.4021 68.4943 89.2722 68.5423C89.0629 68.6117 88.8398 68.6285 88.6225 68.5913C88.4053 68.5542 88.2004 68.4642 88.0261 68.3293C87.9308 68.2297 87.8523 68.1153 87.7939 67.9906C87.7354 67.8677 87.7055 67.7333 87.7064 67.5972C87.7076 67.4627 87.7371 67.3298 87.7931 67.2074C87.8492 67.0851 87.9304 66.9759 88.0316 66.8871C88.1385 66.7841 88.2648 66.7036 88.4032 66.6501C88.5417 66.5966 88.6894 66.5713 88.8377 66.5757C89.1282 66.5749 89.4087 66.682 89.6247 66.8761C89.7292 66.9668 89.8146 67.0772 89.8761 67.2012C89.9351 67.3248 89.965 67.4603 89.9635 67.5972ZM92.8764 67.5972C92.8764 67.7324 92.8473 67.866 92.7912 67.989C92.7351 68.1119 92.6533 68.2215 92.5513 68.3102C92.332 68.5115 92.0428 68.6193 91.7452 68.6106C91.4523 68.6194 91.1662 68.5224 90.939 68.3375C90.8385 68.2438 90.7583 68.1305 90.7033 68.0046C90.6483 67.8787 90.6197 67.7428 90.6193 67.6054C90.6195 67.4707 90.6478 67.3374 90.7024 67.2142C90.757 67.091 90.8366 66.9805 90.9363 66.8898C91.045 66.7858 91.1737 66.705 91.3147 66.6524C91.4556 66.5998 91.6058 66.5765 91.7561 66.5839C92.0416 66.5789 92.3197 66.6757 92.5403 66.857C92.6499 66.9459 92.7374 67.059 92.7957 67.1875C92.854 67.316 92.8817 67.4563 92.8764 67.5972Z" fill="white"/>
<path id="Vector_37" d="M103.968 79.2467H102.328C101.235 79.2467 100.388 79.0555 99.817 78.6731C99.4931 78.8694 99.1397 79.0123 98.7704 79.0964C98.2926 79.2043 97.8037 79.2548 97.3139 79.2467H93.8818V77.4576H97.2374C97.4547 77.4713 97.6722 77.4348 97.8732 77.351C98.0741 77.2671 98.253 77.1382 98.396 76.9741C98.6548 76.6544 98.7879 76.2514 98.7704 75.8405V70.1727H100.825V75.6767C100.825 76.8658 101.328 77.4594 102.334 77.4576H103.973L103.968 79.2467ZM100.907 67.4604C100.911 67.5937 100.884 67.7261 100.831 67.8483C100.764 67.9775 100.671 68.0912 100.558 68.1815C100.451 68.2803 100.327 68.3571 100.191 68.4072C100.055 68.4574 99.9099 68.48 99.7651 68.4738C99.4691 68.4835 99.1809 68.3777 98.9617 68.1788C98.8601 68.0889 98.7789 67.9782 98.7238 67.8543C98.6686 67.7304 98.6407 67.596 98.642 67.4604C98.6427 67.3256 98.6718 67.1925 98.7274 67.0697C98.7829 66.9468 98.8637 66.8371 98.9644 66.7475C99.071 66.646 99.1966 66.5664 99.334 66.5135C99.4714 66.4605 99.6179 66.4352 99.7651 66.4388C100.05 66.4402 100.326 66.5439 100.541 66.7311C100.655 66.8153 100.748 66.9252 100.811 67.052C100.875 67.1787 100.908 67.3186 100.907 67.4604Z" fill="white"/>
<path id="Vector_38" d="M125.227 76.0155C125.234 76.4878 125.165 76.9583 125.022 77.4085C124.89 77.8049 124.673 78.1676 124.385 78.4711C123.779 79.1102 122.887 79.4298 121.71 79.4298C120.761 79.4475 119.816 79.3044 118.915 79.0064C118.615 79.1512 118.297 79.2559 117.969 79.3178C117.57 79.3946 117.165 79.4312 116.759 79.4271C115.751 79.4533 114.747 79.2854 113.802 78.9327C113.161 79.1626 112.482 79.2682 111.802 79.2441H103.304V77.4549H111.84C112.033 77.4584 112.225 77.4198 112.402 77.342C112.579 77.2642 112.737 77.149 112.865 77.0043C113.141 76.6946 113.288 76.2908 113.275 75.8762V70.1729H115.327V77.3675C115.75 77.5785 116.22 77.6791 116.693 77.6598C117.71 77.6598 118.218 77.149 118.218 76.1329V70.1729H120.273V77.3675C120.697 77.5758 121.167 77.6762 121.639 77.6598C122.656 77.6598 123.164 77.149 123.164 76.1329V70.1729H125.219L125.227 76.0155Z" fill="white"/>
<path id="Vector_39" d="M135.373 79.3754C135.373 80.5299 135.047 81.4304 134.394 82.0768C133.742 82.7233 132.826 83.0456 131.645 83.0438C131.05 83.05 130.455 82.9987 129.869 82.8908C129.405 82.8054 128.959 82.642 128.549 82.4074L129.126 81.0553C129.79 81.4175 130.534 81.6054 131.29 81.6016C132.684 81.6016 133.381 80.9205 133.381 79.5584V79.2471H131.82C131.278 79.2691 130.738 79.1614 130.246 78.9329C129.753 78.7044 129.323 78.3616 128.989 77.9332C128.347 77.1411 128.03 76.1277 128.03 74.8931C128.03 73.4454 128.374 72.2891 129.06 71.4241C129.789 70.479 130.864 70.0074 132.285 70.0092C132.683 70.0035 133.079 70.0541 133.463 70.1594C133.804 70.2568 134.123 70.4191 134.403 70.6375C135.048 71.1328 135.371 72.1125 135.373 73.5765V79.3754ZM133.381 77.4634V73.022C133.381 71.8402 132.973 71.2493 132.156 71.2493C130.763 71.2493 130.066 72.4275 130.066 74.7838C130.066 76.5666 130.717 77.4579 132.02 77.4579L133.381 77.4634Z" fill="white"/>
<path id="Vector_40" d="M144.614 79.2468H143.62C143.39 79.247 143.161 79.2287 142.934 79.1922C142.701 79.1532 142.472 79.0957 142.248 79.0201V79.3752C142.248 80.5552 141.907 81.4657 141.226 82.1066C140.545 82.7476 139.628 83.0636 138.477 83.0545C137.88 83.0609 137.283 83.0096 136.695 82.9015C136.233 82.8157 135.789 82.6522 135.381 82.418L135.958 81.0659C136.623 81.432 137.371 81.6202 138.13 81.6122C139.518 81.6122 140.212 80.9312 140.212 79.5691V70.1729H142.267V77.2747C142.46 77.3446 142.661 77.3905 142.866 77.4112C143.164 77.4446 143.464 77.4601 143.765 77.4577H144.614V79.2468Z" fill="white"/>
<path id="Vector_41" d="M149.145 76.3706C149.145 77.3557 148.86 78.0841 148.29 78.5557C147.719 79.0274 146.832 79.2604 145.628 79.255H143.939V77.4659H145.554C145.772 77.4796 145.99 77.4431 146.191 77.3593C146.393 77.2755 146.572 77.1465 146.716 76.9824C146.974 76.6627 147.108 76.2597 147.09 75.8488V70.1729H149.145V76.3706ZM148.598 82.0138C148.599 82.1498 148.57 82.2842 148.511 82.4071C148.453 82.5301 148.368 82.6383 148.262 82.7239C148.16 82.8264 148.036 82.9063 147.901 82.9585C147.765 83.0107 147.62 83.0341 147.475 83.0271C147.181 83.0337 146.896 82.9249 146.68 82.7239C146.577 82.6364 146.495 82.5276 146.438 82.4049C146.381 82.2823 146.352 82.1488 146.352 82.0138C146.352 81.8788 146.38 81.7452 146.434 81.6215C146.488 81.4978 146.567 81.3868 146.667 81.2954C146.776 81.1922 146.905 81.1119 147.045 81.0593C147.186 81.0068 147.336 80.983 147.486 80.9895C147.631 80.9882 147.775 81.0103 147.913 81.055C148.048 81.0997 148.171 81.1744 148.273 81.2735C148.377 81.3658 148.46 81.4795 148.516 81.6068C148.571 81.7342 148.599 81.8721 148.596 82.011L148.598 82.0138Z" fill="white"/>
<path id="Vector_42" d="M156.561 79.2468H154.515V67.6162H156.561V79.2468Z" fill="white"/>
</g>
<defs>
<clipPath id="clip0_0_548">
<rect width="160" height="83" fill="white"/>
</clipPath>
</defs>
</svg>
